<?xml version="1.0" encoding="utf-8"?>
<!-- Generator: Adobe Illustrator 23.0.1, SVG Export Plug-In . SVG Version: 6.00 Build 0)  -->
<svg version="1.1" id="Warstwa_1" xmlns="http://www.w3.org/2000/svg" xmlns:xlink="http://www.w3.org/1999/xlink" x="0px" y="0px"
	 viewBox="0 0 480 480" style="enable-background:new 0 0 480 480;" xml:space="preserve">
<style type="text/css">
	.st0{fill:#0A2F4A;}
</style>
<path class="st0" d="M408,228h-96v-80c0-13.6-10.4-24-24-24h-8c-13.6,0-24,10.4-24,24v104h-16c-13.6,0-24,10.4-24,24v58.4l48,88V460
	h144v-38.4l24-56V252C432,238.4,421.6,228,408,228z M280,444v-16h112v16H280z M416,362.4L394.4,412H276.8L232,329.6V276
	c0-4.8,3.2-8,8-8h16v32h16V148c0-4.8,3.2-8,8-8h8c4.8,0,8,3.2,8,8v136h16v-40h24v40h16v-40h24v40h16v-40h16c4.8,0,8,3.2,8,8V362.4z"
	/>
<path class="st0" d="M376,369.6l-14.4,21.6l12.8,9.6l17.6-26.4V340h-16V369.6z"/>
<path class="st0" d="M456,20H24C10.4,20,0,30.4,0,44v304c0,13.6,10.4,24,24,24h184v-16H24c-4.8,0-8-3.2-8-8V44c0-4.8,3.2-8,8-8h432
	c4.8,0,8,3.2,8,8v304c0,4.8-3.2,8-8,8h-8v16h8c13.6,0,24-10.4,24-24V44C480,30.4,469.6,20,456,20z"/>
<path class="st0" d="M40,92h176v16H40V92z"/>
<path class="st0" d="M344,92h96v16h-96V92z"/>
<path class="st0" d="M88,148c-26.4,0-48,21.6-48,48s21.6,48,48,48s48-21.6,48-48S114.4,148,88,148z M88,228c-17.6,0-32-14.4-32-32
	s14.4-32,32-32s32,14.4,32,32S105.6,228,88,228z"/>
<path class="st0" d="M152,188h88v16h-88V188z"/>
<path class="st0" d="M328,188h112v16H328V188z"/>
<path class="st0" d="M200,260v-16c-26.4,0-48,21.6-48,48s21.6,48,48,48v-16c-17.6,0-32-14.4-32-32S182.4,260,200,260z"/>
<path class="st0" d="M40,284h96v16H40V284z"/>
<path class="st0" d="M324,119.2c10.4-24-0.8-52.8-24.8-63.2s-52.8,0.8-63.2,24.8c-5.6,12-5.6,26.4,0,38.4l14.4-6.4
	c-5.6-12-2.4-26.4,6.4-35.2c12.8-12,32.8-12,45.6,0c9.6,9.6,12,23.2,6.4,35.2L324,119.2z"/>
</svg>
