<?xml version="1.0" encoding="utf-8"?>
<!-- Generator: Adobe Illustrator 23.0.1, SVG Export Plug-In . SVG Version: 6.00 Build 0)  -->
<svg version="1.1" id="Capa_1" xmlns="http://www.w3.org/2000/svg" xmlns:xlink="http://www.w3.org/1999/xlink" x="0px" y="0px"
	 viewBox="0 0 512 512" style="enable-background:new 0 0 512 512;" xml:space="preserve">
<style type="text/css">
	.st0{fill:#FFFFFF;}
</style>
<g>
	<path class="st0" d="M158.5,176.1c0.5,25.4,10.7,49.2,28.9,67.3c18.2,18,42.1,28.1,67.5,28.4c11.8,0.1,23.5-1.8,34.5-5.9
		c3.9-1.4,5.9-5.7,4.5-9.6c-1.4-3.9-5.7-5.9-9.6-4.5c-9.3,3.4-19.1,5.1-29.2,5c-44.1-0.5-80.7-36.8-81.6-81
		c-0.6-22.5,8.5-44.5,25-60.6c16.5-16.1,38.8-24.6,61.3-23.3c43,1.9,77.5,37.2,78.6,80.3c0.3,10-1.3,19.9-4.5,29.2
		c-2.2,6.2-8.1,10.4-14.8,10.4c0,0,0,0,0,0c-8.6,0-15.7-7-15.7-15.7v-61.8c0-4.1-3.4-7.5-7.5-7.5s-7.5,3.4-7.5,7.5v5.4
		c-8.5-8-19.9-12.9-32.5-12.9c-26.2,0-47.5,21.3-47.5,47.5s21.3,47.5,47.5,47.5c13.6,0,25.8-5.7,34.5-14.9
		c4.4,11.6,15.6,19.9,28.7,19.9h0c13,0,24.7-8.2,28.9-20.5c3.9-11.1,5.7-22.7,5.4-34.6c-1.3-50.9-42.1-92.6-92.9-94.9
		c-26.6-1.4-53,8.6-72.5,27.6C168.6,123.4,157.8,149.6,158.5,176.1L158.5,176.1z M256,206.8c-17.9,0-32.5-14.6-32.5-32.5
		s14.6-32.5,32.5-32.5s32.5,14.6,32.5,32.5S273.9,206.8,256,206.8z"/>
	<path class="st0" d="M509.1,199.1L298.8,34.8c-24.3-19-58.4-19.1-82.8-0.2L2.9,199.1C1.1,200.5,0,202.7,0,205v66
		c0,4.1,3.4,7.5,7.5,7.5s7.5-3.4,7.5-7.5v-53.2l188.6,105.3L15,468.7V306c0-4.1-3.4-7.5-7.5-7.5S0,301.9,0,306v178
		c-0.1,4,3.5,7.6,7.5,7.5h497c4,0.1,7.6-3.5,7.5-7.5V205.9C512.2,203.3,511.2,200.7,509.1,199.1L509.1,199.1z M29.5,476.5
		l195.7-151.1c19-14.7,45.5-14.6,64.4,0.2l3.6,2.8c0,0,94,73.5,94,73.5c3.3,2.5,8,2,10.5-1.3c2.5-3.3,2-8-1.3-10.5l-85.2-66.6
		l46.1-26c3.6-2,4.9-6.6,2.9-10.2c-2-3.6-6.6-4.9-10.2-2.9l-51.6,29c-24.1-18.6-57.6-18.7-81.9-0.3L21.1,204L225.2,46.4
		c19-14.7,45.5-14.6,64.4,0.2l202.2,158l-112.1,63.2c-3.6,2-4.9,6.6-2.9,10.2c2,3.6,6.7,4.9,10.2,2.9l110-62v249.8L423.3,411
		c-3.3-2.5-8-2-10.5,1.3c-2.5,3.3-2,8,1.3,10.5l68.7,53.7L29.5,476.5L29.5,476.5z"/>
</g>
</svg>
