<?xml version="1.0" encoding="iso-8859-1"?>
<!-- Generator: Adobe Illustrator 19.0.0, SVG Export Plug-In . SVG Version: 6.00 Build 0)  -->
<svg version="1.1" id="Capa_1" xmlns="http://www.w3.org/2000/svg" xmlns:xlink="http://www.w3.org/1999/xlink" x="0px" y="0px"
	 viewBox="0 0 431.52 431.52" style="enable-background:new 0 0 431.52 431.52;" xml:space="preserve">
<g>
	<g>
		<path d="M429.303,205.6L429.303,205.6l-33.84-42.8l5.2-54.32c0.256-3.46-1.747-6.691-4.96-8l-50.72-20.72l-22.72-49.6
			c-1.484-3.209-4.9-5.064-8.4-4.56l-54,8l-44.48-32c-2.844-2.133-6.756-2.133-9.6,0l-42.8,34.64l-54.32-5.2
			c-3.48-0.244-6.718,1.795-8,5.04l-20.72,50.64l-49.6,22.72c-3.209,1.484-5.064,4.9-4.56,8.4l8,54l-32,44.48
			c-2.133,2.844-2.133,6.756,0,9.6l33.84,42.8l-5.2,54.32c-0.256,3.46,1.747,6.691,4.96,8l51.52,20.72l22.72,49.6
			c1.484,3.209,4.9,5.064,8.4,4.56l54-8l44.48,32c2.844,2.133,6.756,2.133,9.6,0l42.8-33.84l54.32,5.2
			c3.46,0.256,6.691-1.747,8-4.96l20.72-51.52l49.6-22.72c3.209-1.484,5.063-4.9,4.56-8.4l-8-54l32-44.48
			C432.009,212.18,431.682,208.263,429.303,205.6z M333.646,191.174c-0.125,0.86-0.526,1.655-1.143,2.266l-55.36,53.92l13.04,75.84
			c0.354,2.181-1.128,4.235-3.308,4.589c-0.202,0.033-0.407,0.05-0.612,0.051c-0.643-0.007-1.275-0.171-1.84-0.48l-68.48-35.92
			l-68.4,36.32c-1.942,1.053-4.37,0.331-5.423-1.611c-0.435-0.803-0.582-1.731-0.417-2.629l13.04-76.16l-55.36-53.92
			c-1.569-1.555-1.581-4.087-0.026-5.657c0.611-0.617,1.407-1.018,2.266-1.143l76.48-11.12l34.24-69.28
			c1.151-1.988,3.696-2.667,5.685-1.515c0.629,0.364,1.151,0.887,1.515,1.515l34.24,69.28l76.48,11.12
			C332.449,186.958,333.964,188.987,333.646,191.174z"/>
	</g>
</g>
<g>
</g>
<g>
</g>
<g>
</g>
<g>
</g>
<g>
</g>
<g>
</g>
<g>
</g>
<g>
</g>
<g>
</g>
<g>
</g>
<g>
</g>
<g>
</g>
<g>
</g>
<g>
</g>
<g>
</g>
</svg>
