<?xml version="1.0" encoding="utf-8"?>
<!-- Generator: Adobe Illustrator 23.0.1, SVG Export Plug-In . SVG Version: 6.00 Build 0)  -->
<svg version="1.1" id="Capa_1" xmlns="http://www.w3.org/2000/svg" xmlns:xlink="http://www.w3.org/1999/xlink" x="0px" y="0px"
	 viewBox="0 0 512 512" style="enable-background:new 0 0 512 512;" xml:space="preserve">
<style type="text/css">
	.st0{fill:#FFFFFF;}
</style>
<g>
	<circle class="st0" cx="286" cy="136" r="15"/>
	<circle class="st0" cx="346" cy="136" r="15"/>
	<circle class="st0" cx="406" cy="136" r="15"/>
	<path class="st0" d="M337.2,481c24.7,0,44.8-20.2,44.8-45v-60c0-6.5-4.1-12.2-10.2-14.2l-89.8-30c-4.4-1.5-9.2-0.8-13.1,1.7
		L230.7,359c-41-19.4-89.4-67.4-108.7-107.7l25.4-38.2c2.6-3.9,3.2-8.7,1.7-13.1l-30-89.8c-2-6.1-7.8-10.2-14.2-10.2H45
		c-24.8,0-45,20.1-45,44.8c0,82.9,37.7,167.9,103.4,233.4C169,443.5,254.2,481,337.2,481L337.2,481z M45,130h49.2l24.3,72.6
		l-25.9,38.9c-2.7,4.1-3.3,9.3-1.4,13.9c10,24.9,29.9,53,56.2,79c26.1,25.8,54.3,45.6,79.4,55.6c4.6,1.8,9.8,1.3,13.9-1.4l38.9-25.9
		l72.6,24.3V436c0,8.4-6.5,15-14.8,15C179.3,451,30,302.2,30,144.8C30,136.5,36.6,130,45,130L45,130z"/>
	<path class="st0" d="M280.3,299.9c5.6,2.3,12.1,1,16.3-3.3l55.6-55.6H406c58.4,0,106-47.1,106-105S464.4,31,406,31H286
		c-57.9,0-105,47.1-105,105c0,52.8,39.2,96.6,90,103.9V286C271,292.1,274.7,297.5,280.3,299.9L280.3,299.9z M211,136
		c0-41.4,33.6-75,75-75h120c41.9,0,76,33.6,76,75s-34.1,75-76,75h-60c-4,0-7.8,1.6-10.6,4.4L301,249.8V226c0-8.3-6.7-15-15-15
		C244.6,211,211,177.4,211,136z"/>
</g>
</svg>
