<?xml version="1.0" encoding="utf-8"?>
<!-- Generator: Adobe Illustrator 23.0.1, SVG Export Plug-In . SVG Version: 6.00 Build 0)  -->
<svg version="1.1" id="Outline-Expanded" xmlns="http://www.w3.org/2000/svg" xmlns:xlink="http://www.w3.org/1999/xlink" x="0px"
	 y="0px" viewBox="0 0 512 512" style="enable-background:new 0 0 512 512;" xml:space="preserve">
<style type="text/css">
	.st0{fill:#0A2F4A;stroke:#0A2F4A;stroke-miterlimit:10;}
</style>
<circle class="st0" cx="160" cy="224" r="16"/>
<circle class="st0" cx="256" cy="224" r="16"/>
<path class="st0" d="M208,296c-14.5,0-28.1-6.7-38.2-18.9l12.3-10.2c7,8.4,16.2,13.1,25.8,13.1s18.8-4.7,25.8-13.1l12.3,10.2
	C236.1,289.3,222.5,296,208,296z"/>
<path class="st0" d="M488,232c-22.1,0-40,17.9-40,40v8h-32c-13.2,0-24,10.8-24,24c0,6.2,2.3,11.8,6.2,16c-3.8,4.2-6.2,9.8-6.2,16
	s2.3,11.8,6.2,16c-3.8,4.2-6.2,9.8-6.2,16s2.3,11.8,6.2,16c-3.4,3.8-5.7,8.7-6.1,14.1c-3.4-10.5-7.8-20.3-13.1-30
	c-12.4-22.3-19-47.7-19-73.3V176c0-83.8-68.2-152-152-152S56,92.2,56,176v118.8c0,25.6-6.6,51-19,73.3c-13.8,24.8-21,52.8-21,81.1
	V488c0,4.4,3.6,8,8,8h368c4.4,0,8-3.6,8-8v-38.8c0-12-1.4-24-3.8-35.7c4.3,6.3,11.6,10.5,19.8,10.5h8v64c0,4.4,3.6,8,8,8h56
	c4.4,0,8-3.6,8-8V240C496,235.6,492.4,232,488,232L488,232z M365,375.9c8.9,15.9,14.7,33.4,17.4,51.5c-9.6-11-22.7-19.2-37.9-22.8
	l-80.5-19V354c36-19,61.2-55.9,63.8-98.8c6-1.2,11.5-3.8,16.2-7.3v46.8C344,323.1,351.3,351.1,365,375.9L365,375.9z M237.2,129.1
	c17.9,43.4,58.5,57.4,74.8,61.4V248c0,57.4-46.6,104-104,104s-104-46.6-104-104v-56.3C127,190.1,194.1,181.1,237.2,129.1
	L237.2,129.1z M104,175.5C104.2,118.4,150.8,72,208,72c56.7,0,103,45.6,103.9,102.1c-17-4.6-53-19.6-64.2-64c-0.8-3.1-3.3-5.4-6.4-6
	c-3.1-0.5-6.2,0.9-8,3.5C196.2,163.3,127.4,173.7,104,175.5z M328,238.6v-45.1c9.3,3.3,16,12.2,16,22.6S337.3,235.3,328,238.6z
	 M72,176c0-75,61-136,136-136s136,61,136,136v8c-4.6-3.5-10.1-6-16-7.2V176c0-66.2-53.8-120-120-120S88,109.8,88,176v0.8
	c-5.9,1.2-11.4,3.7-16,7.2V176z M88,193.4v45.1c-9.3-3.3-16-12.2-16-22.6S78.7,196.7,88,193.4z M51,375.9c13.8-24.8,21-52.8,21-81.1
	V248c4.7,3.5,10.2,6.1,16.2,7.3c2.6,42.9,27.8,79.8,63.8,98.8v31.6l-80.5,19c-15.2,3.6-28.3,11.8-37.9,22.8
	C36.2,409.4,42.1,391.8,51,375.9z M32,480v-5.3c0-26.2,17.8-48.6,43.2-54.6l17.5-4.1l18.2,18.1l-6.5,19.3c-1.3,3.9,0.6,8.2,4.3,9.8
	l37.6,16.7H32V480z M121.9,451.7l5.7-17.1c1-2.9,0.2-6.1-1.9-8.2L111,411.7l43.1-10.1l18.1,72.4L121.9,451.7z M225.8,480h-35.5
	l-9.8-39.3c8.3,4.8,17.8,7.3,27.6,7.3s19.4-2.6,27.6-7.4L225.8,480z M208,432c-10.7,0-20.7-4.2-28.3-11.8c-2.5-2.4-4.7-5.3-6.5-8.4
	l-0.1-0.1L168,391v-29.9c12.5,4.5,25.9,6.9,40,6.9s27.5-2.4,40-6.9V391l-5.1,20.5C235.8,424.2,222.5,432,208,432L208,432z
	 M261.8,401.6l43.1,10.1l-14.6,14.6c-2.1,2.2-2.9,5.4-1.9,8.2l5.7,17.1L243.8,474L261.8,401.6z M384,480H269.7l37.6-16.7
	c3.8-1.7,5.6-5.9,4.3-9.8l-6.5-19.3l18.2-18.1l17.5,4.1c25.4,6,43.2,28.4,43.2,54.6L384,480L384,480z M480,480h-40v-64
	c0-4.4-3.6-8-8-8h-16c-4.4,0-8-3.6-8-8s3.6-8,8-8s8-3.6,8-8s-3.6-8-8-8s-8-3.6-8-8s3.6-8,8-8s8-3.6,8-8s-3.6-8-8-8s-8-3.6-8-8
	s3.6-8,8-8s8-3.6,8-8s-3.6-8-8-8s-8-3.6-8-8s3.6-8,8-8h40c4.4,0,8-3.6,8-8v-16c0-10.4,6.7-19.4,16-22.6V480z"/>
</svg>
